<svg xmlns="http://www.w3.org/2000/svg" width="18" height="18" viewBox="0 0 18 18">
    <g fill="none" fill-rule="evenodd">
        <g>
            <g>
                <g>
                    <g>
                        <path d="M0 18L18 18 18 0 0 0z" transform="translate(-174 -2114) translate(123 2023) translate(0 40) translate(51 51)"/>
                        <path fill="#EAEAEA" d="M16.55 2.45c-1.933-1.933-5.067-1.933-7 0L9 3l-.55-.55c-1.933-1.933-5.067-1.933-7 0-1.934 1.933-1.934 5.067 0 7L2 10l7 7 7-7 .55-.55c1.933-1.933 1.933-5.067 0-7" transform="translate(-174 -2114) translate(123 2023) translate(0 40) translate(51 51)"/>
                    </g>
                </g>
            </g>
        </g>
    </g>
</svg>
