<svg width="20" height="20" xmlns="http://www.w3.org/2000/svg">
    <g fill="none" fill-rule="evenodd">
        <circle stroke="#EAEAEA" fill="#FFF" cx="10" cy="10" r="9.5"/>
        <path d="M10.539 11.79V11.4c0-.226.031-.422.094-.588.063-.167.173-.325.331-.473.158-.149.38-.309.666-.48.441-.275.78-.598 1.016-.97.236-.371.354-.814.354-1.327v-.014c0-.495-.123-.934-.37-1.317a2.528 2.528 0 0 0-1.036-.902C11.15 5.109 10.632 5 10.04 5c-.64 0-1.184.118-1.63.355a2.486 2.486 0 0 0-1.023.976A3.065 3.065 0 0 0 7 7.743v.014l1.52-.007.012-.007c.013-.275.08-.514.202-.72.121-.204.285-.363.493-.476a1.49 1.49 0 0 1 .721-.169c.277 0 .518.054.724.163.206.108.365.253.477.435.113.183.17.393.17.632v.014c0 .22-.034.414-.101.58-.068.167-.18.325-.338.474a4.388 4.388 0 0 1-.64.48c-.294.184-.535.379-.724.584a1.78 1.78 0 0 0-.4.69 2.558 2.558 0 0 0-.09.88l.006.48h1.507zM9.857 15c.33 0 .591-.096.786-.287.195-.192.292-.45.292-.774s-.097-.582-.292-.773c-.195-.192-.457-.288-.786-.288-.325 0-.585.096-.782.288-.197.191-.296.449-.296.773 0 .325.099.582.296.774.197.191.457.287.782.287z" fill="#C8C8C8" fill-rule="nonzero"/>
    </g>
</svg>
