<svg xmlns="http://www.w3.org/2000/svg" width="76" height="12" viewBox="0 0 76 12">
    <g fill="none" fill-rule="evenodd">
        <g>
            <g>
                <g>
                    <path d="M0 0H76V12H0z" transform="translate(-20 -242) translate(0 202) translate(20 40)"/>
                    <path fill="#FFF" d="M72.005 6.937c-1.646-.575-3.5-1.47-3.5-3.548 0-1.582 1.407-3.164 3.66-3.164C74.498.225 75.808 2 75.808 2l-1.326 1.31s-.927-1.262-2.317-1.262c-.96 0-1.71.591-1.71 1.342 0 .975.879 1.279 2.413 1.854C74.578 5.883 76 6.649 76 8.679c0 2.03-1.79 3.116-3.9 3.116-2.796 0-4.09-2.285-4.09-2.285l1.438-1.215s.959 1.678 2.653 1.678c.959 0 1.95-.383 1.95-1.294 0-.943-.72-1.279-2.046-1.742M57.784.417L63.377 8.119 63.377.417 65.294.417 65.294 11.603 63.569 11.603 57.975 3.916 57.975 11.603 56.058 11.603 56.058.417zM51.585 6.01c0-2.157-1.454-3.963-3.707-3.963-2.254 0-3.708 1.806-3.708 3.963s1.454 3.963 3.708 3.963c2.253 0 3.707-1.806 3.707-3.963m1.95 0c0 3.308-2.397 5.785-5.657 5.785-3.26 0-5.657-2.477-5.657-5.785 0-3.308 2.397-5.785 5.657-5.785 3.26 0 5.657 2.477 5.657 5.785M37.555 11.603L39.473 11.603 39.473.417 37.555.417zM21.124.417L23.042.417 23.042 9.781 27.119 9.781 27.119 11.603 21.124 11.603zM29.228.417L31.146.417 31.146 9.781 35.223 9.781 35.223 11.603 29.228 11.603zM15.82 11.603L17.738 11.603 17.738.417 15.82.417zM10.66.417L7.016 6.042 7.016 9.414 10.516 4.092 10.516 11.603 12.434 11.603 12.434.417zM5.647 2.738L4.287.639 4.287 4.092 5.647 6.159zM2.898.788L2.774.788 2.34.788 1 .788 1 2.705 1 3.025 1 11.974 2.918 11.974 2.918 4.463 2.918.788z" transform="translate(-20 -242) translate(0 202) translate(20 40)"/>
                </g>
            </g>
        </g>
    </g>
</svg>
