<svg xmlns="http://www.w3.org/2000/svg" width="48" height="48" viewBox="0 0 48 48">
    <g fill="none" fill-rule="evenodd">
        <g>
            <g>
                <g>
                    <path d="M0 48L48 48 48 0 0 0z" transform="translate(-156 -827) translate(20 791) translate(136 36)"/>
                    <path fill="#1E1E1E" d="M32 26c-1.104 0-2-.896-2-2s.896-2 2-2 2 .896 2 2-.896 2-2 2m-8 0c-1.104 0-2-.896-2-2s.896-2 2-2 2 .896 2 2-.896 2-2 2m-8 0c-1.104 0-2-.896-2-2s.896-2 2-2 2 .896 2 2-.896 2-2 2m32-2C48 10.745 37.255 0 24 0S0 10.745 0 24s10.745 24 24 24c5.091 0 9.81-1.59 13.693-4.294L48 48l-4.294-10.307C46.41 33.81 48 29.091 48 24" transform="translate(-156 -827) translate(20 791) translate(136 36)"/>
                </g>
            </g>
        </g>
    </g>
</svg>
