<svg xmlns="http://www.w3.org/2000/svg" width="36" height="36" viewBox="0 0 36 36">
    <g fill="none" fill-rule="evenodd">
        <g>
            <g>
                <g>
                    <g>
                        <g>
                            <path d="M0 36L36 36 36 0 0 0z" transform="translate(-162 -2536) translate(20 1668) translate(0 816) translate(112 36) translate(30 16)"/>
                            <path fill="#C8C8C8" d="M30 17.25H19.811l7.205-7.205c.293-.293.293-.768 0-1.061-.293-.293-.768-.293-1.061 0l-7.205 7.205V6c0-.414-.336-.75-.75-.75s-.75.336-.75.75v10.189l-7.205-7.205c-.293-.293-.768-.293-1.061 0-.293.293-.293.768 0 1.061l7.205 7.205H6c-.414 0-.75.336-.75.75s.336.75.75.75h10.189l-7.205 7.205c-.293.293-.293.768 0 1.061.147.146.338.219.531.219.192 0 .383-.073.53-.219l7.205-7.205V30c0 .414.336.75.75.75s.75-.336.75-.75V19.811l7.205 7.205c.147.146.338.219.53.219.193 0 .384-.073.531-.219.293-.293.293-.768 0-1.061l-7.205-7.205H30c.414 0 .75-.336.75-.75s-.336-.75-.75-.75" transform="translate(-162 -2536) translate(20 1668) translate(0 816) translate(112 36) translate(30 16)"/>
                            <path fill="#FFF" d="M26 18c0 4.418-3.582 8-8 8s-8-3.582-8-8 3.582-8 8-8 8 3.582 8 8" transform="translate(-162 -2536) translate(20 1668) translate(0 816) translate(112 36) translate(30 16)"/>
                            <path fill="#C8C8C8" d="M18 10c-4.418 0-8 3.582-8 8s3.582 8 8 8 8-3.582 8-8-3.582-8-8-8m0 1.5c3.584 0 6.5 2.916 6.5 6.5s-2.916 6.5-6.5 6.5-6.5-2.916-6.5-6.5 2.916-6.5 6.5-6.5" transform="translate(-162 -2536) translate(20 1668) translate(0 816) translate(112 36) translate(30 16)"/>
                        </g>
                    </g>
                </g>
            </g>
        </g>
    </g>
</svg>
