<svg xmlns="http://www.w3.org/2000/svg" width="22" height="22" viewBox="0 0 22 22">
    <g fill="none" fill-rule="evenodd">
        <g>
            <g>
                <g>
                    <g>
                        <g>
                            <path d="M0 22L22 22 22 0 0 0z" transform="translate(-529 -837) translate(123 718) translate(0 40) translate(357 30) translate(49 49)"/>
                            <path fill="#1E1E1E" d="M15.5 2c-1.408 0-2.815.537-3.889 1.611l-.612.612-.61-.612C9.315 2.537 7.908 2 6.5 2s-2.815.537-3.889 1.611c-2.148 2.148-2.148 5.63 0 7.778l.611.611L11 19.778 18.778 12l.611-.611c2.148-2.148 2.148-5.63 0-7.778C18.315 2.537 16.908 2 15.5 2m0 1.5c1.068 0 2.073.416 2.829 1.171 1.559 1.56 1.559 4.098 0 5.657l-.611.611L11 17.657l-6.718-6.718-.611-.61c-1.559-1.56-1.559-4.098 0-5.658C4.427 3.916 5.432 3.5 6.5 3.5c1.068 0 2.073.416 2.827 1.17l.61.612 1.061 1.064 1.062-1.063.611-.612C13.427 3.916 14.432 3.5 15.5 3.5" transform="translate(-529 -837) translate(123 718) translate(0 40) translate(357 30) translate(49 49)"/>
                        </g>
                    </g>
                </g>
            </g>
        </g>
    </g>
</svg>
