<svg xmlns="http://www.w3.org/2000/svg" width="22" height="22" viewBox="0 0 22 22">
    <g fill="none" fill-rule="evenodd">
        <g>
            <g>
                <g>
                    <g>
                        <g>
                            <path d="M0 22L22 22 22 0 0 0z" transform="translate(-172 -837) translate(123 718) translate(0 40) translate(0 30) translate(49 49)"/>
                            <path fill="#1E1E1E" d="M11.5 20H20v-8.5h-8.5V20zm1.5-1.5h5.5V13H13v5.5zM2 20h8.5v-8.5H2V20zm1.5-1.5H9V13H3.5v5.5zM11.5 10.5H20V2h-8.5v8.5zM13 9h5.5V3.5H13V9zM2 10.5h8.5V2H2v8.5zM3.5 9H9V3.5H3.5V9z" transform="translate(-172 -837) translate(123 718) translate(0 40) translate(0 30) translate(49 49)"/>
                        </g>
                    </g>
                </g>
            </g>
        </g>
    </g>
</svg>
