<svg xmlns="http://www.w3.org/2000/svg" width="22" height="22" viewBox="0 0 22 22">
    <g fill="none" fill-rule="evenodd">
        <g>
            <g>
                <g>
                    <g>
                        <g>
                            <path d="M0 22L22 22 22 0 0 0z" transform="translate(-172 -1068) translate(123 718) translate(0 271) translate(0 30) translate(49 49)"/>
                            <path fill="#1E1E1E" d="M11.5 20L20 20 20 11.5 11.5 11.5zM2 20L10.5 20 10.5 11.5 2 11.5zM11.5 10.5L20 10.5 20 2 11.5 2zM2 10.5L10.5 10.5 10.5 2 2 2z" transform="translate(-172 -1068) translate(123 718) translate(0 271) translate(0 30) translate(49 49)"/>
                        </g>
                    </g>
                </g>
            </g>
        </g>
    </g>
</svg>
