<svg xmlns="http://www.w3.org/2000/svg" width="22" height="22" viewBox="0 0 22 22">
    <g fill="none" fill-rule="evenodd">
        <g>
            <g>
                <g>
                    <g>
                        <g>
                            <path d="M0 22L22 22 22 0 0 0z" transform="translate(-291 -837) translate(123 718) translate(0 40) translate(119 30) translate(49 49)"/>
                            <path fill="#1E1E1E" d="M19.5 11c0 1.19-.248 2.323-.692 3.353l1.304.752c.566-1.253.888-2.64.888-4.105 0-5.186-3.947-9.448-9-9.95v1.514c4.217.498 7.5 4.088 7.5 8.436M3.192 14.353C2.748 13.323 2.5 12.19 2.5 11c0-4.348 3.284-7.939 7.5-8.436V1.05C4.947 1.552 1 5.814 1 11c0 1.465.323 2.852.889 4.105l1.303-.752zM17.799 16.08c-1.552 2.071-4.018 3.42-6.8 3.42-2.78 0-5.246-1.349-6.798-3.42l-1.31.756C4.709 19.354 7.659 21 11 21c3.342 0 6.293-1.646 8.109-4.164l-1.31-.756z" transform="translate(-291 -837) translate(123 718) translate(0 40) translate(119 30) translate(49 49)"/>
                            <path fill="#1E1E1E" d="M13.471 14.204L15.271 14.204 15.271 7.796 13.471 7.796zM8.907 10.406l-.468 1.476h1.557l-.477-1.476c-.168-.516-.27-.855-.306-1.017l-.306 1.017zm3.753 3.798h-1.908l-.27-.837H7.97l-.269.837H5.865l2.277-6.408h2.16l2.358 6.408z" transform="translate(-291 -837) translate(123 718) translate(0 40) translate(119 30) translate(49 49)"/>
                        </g>
                    </g>
                </g>
            </g>
        </g>
    </g>
</svg>
