<svg xmlns="http://www.w3.org/2000/svg" width="24" height="24" viewBox="0 0 24 24">
    <g fill="none" fill-rule="evenodd">
        <g>
            <g>
                <g>
                    <g>
                        <path d="M0 24L24 24 24 0 0 0z" transform="translate(-290 -1328) translate(123 1240) translate(119 40) translate(48 48)"/>
                        <path fill="#1E1E1E" d="M12 2c-4.971 0-9 4.029-9 9s4.029 9 9 9c1.12 0 2.188-.214 3.177-.588L21 22l-1.279-6.394C20.528 14.258 21 12.686 21 11c0-4.971-4.029-9-9-9m0 1.5c4.136 0 7.5 3.364 7.5 7.5 0 1.344-.369 2.67-1.066 3.837l-.297.496.113.568.711 3.551-3.175-1.41-.563-.251-.576.218c-.862.326-1.753.491-2.647.491-4.136 0-7.5-3.365-7.5-7.5 0-4.136 3.364-7.5 7.5-7.5" transform="translate(-290 -1328) translate(123 1240) translate(119 40) translate(48 48)"/>
                        <path fill="#1E1E1E" d="M10 11c0 .552-.448 1-1 1s-1-.448-1-1 .448-1 1-1 1 .448 1 1M13 11c0 .552-.448 1-1 1s-1-.448-1-1 .448-1 1-1 1 .448 1 1M16 11c0 .552-.448 1-1 1s-1-.448-1-1 .448-1 1-1 1 .448 1 1" transform="translate(-290 -1328) translate(123 1240) translate(119 40) translate(48 48)"/>
                    </g>
                </g>
            </g>
        </g>
    </g>
</svg>
