<svg xmlns="http://www.w3.org/2000/svg" width="26" height="26" viewBox="0 0 26 26">
    <g fill="none" fill-rule="evenodd">
        <g>
            <g>
                <g>
                    <g>
                        <g>
                            <path d="M0 26L26 26 26 0 0 0z" transform="translate(-289 -544) translate(123 196) translate(0 271) translate(119 30) translate(47 47)"/>
                            <path fill="#FFF" d="M8.75 9.75c0-2.343 1.907-4.25 4.25-4.25s4.25 1.907 4.25 4.25S15.343 14 13 14s-4.25-1.907-4.25-4.25M4.062 22h1.513c.491-3.663 3.629-6.5 7.425-6.5 3.795 0 6.934 2.837 7.425 6.5h1.513c-.38-3.427-2.684-6.269-5.809-7.43 1.577-1.025 2.621-2.799 2.621-4.82C18.75 6.574 16.176 4 13 4S7.25 6.574 7.25 9.75c0 2.021 1.044 3.795 2.621 4.82-3.125 1.161-5.429 4.003-5.809 7.43" transform="translate(-289 -544) translate(123 196) translate(0 271) translate(119 30) translate(47 47)"/>
                        </g>
                    </g>
                </g>
            </g>
        </g>
    </g>
</svg>
