<svg width="24" height="24" xmlns="http://www.w3.org/2000/svg">
    <g fill="none" fill-rule="evenodd">
        <path d="M0 24h24V0H0z"/>
        <path d="M16.5 3a5.484 5.484 0 0 0-3.889 1.611L12 5.222l-.611-.611A5.482 5.482 0 0 0 7.5 3a5.5 5.5 0 0 0-3.889 9.389l.611.611L12 20.778 19.778 13l.611-.611A5.5 5.5 0 0 0 16.5 3m0 1.5c1.068 0 2.073.416 2.828 1.172A3.971 3.971 0 0 1 20.5 8.5a3.971 3.971 0 0 1-1.172 2.828l-.61.611L12 18.657l-6.718-6.718-.611-.611A3.974 3.974 0 0 1 3.5 8.5c0-1.068.416-2.073 1.171-2.828A3.975 3.975 0 0 1 7.5 4.5c1.068 0 2.073.416 2.829 1.172l.61.61L12 7.343l1.061-1.061.61-.61A3.975 3.975 0 0 1 16.5 4.5" fill="#FFF"/>
    </g>
</svg>
