<svg xmlns="http://www.w3.org/2000/svg" width="20" height="20" viewBox="0 0 20 20">
    <g fill="none" fill-rule="evenodd">
        <g>
            <g>
                <g>
                    <path d="M0 20L20 20 20 0 0 0z" transform="translate(-173 -2374) translate(123 2284) translate(50 90)"/>
                    <path fill="#1E1E1E" d="M2.5 8c0-3.033 2.467-5.5 5.5-5.5s5.5 2.467 5.5 5.5-2.467 5.5-5.5 5.5S2.5 11.033 2.5 8m16.28 9.72l-5.331-5.331C14.417 11.188 15 9.663 15 8c0-3.866-3.134-7-7-7S1 4.134 1 8s3.134 7 7 7c1.663 0 3.188-.582 4.389-1.551l5.331 5.331c.146.147.338.22.53.22s.384-.073.53-.22c.293-.293.293-.767 0-1.06" transform="translate(-173 -2374) translate(123 2284) translate(50 90)"/>
                </g>
            </g>
        </g>
    </g>
</svg>
