<svg xmlns="http://www.w3.org/2000/svg" width="20" height="20" viewBox="0 0 20 20">
    <g fill="none" fill-rule="evenodd">
        <g>
            <g>
                <g>
                    <g>
                        <path d="M0 20L20 20 20 0 0 0z" transform="translate(-292 -2896) translate(123 2806) translate(119 40) translate(50 50)"/>
                        <path fill="#1E1E1E" d="M10 15c-2.762 0-5-2.239-5-5s2.238-5 5-5 5 2.239 5 5-2.238 5-5 5m0-12C3 3 0 10 0 10s3 7 10 7 10-7 10-7-3-7-10-7" transform="translate(-292 -2896) translate(123 2806) translate(119 40) translate(50 50)"/>
                        <path fill="#1E1E1E" d="M12 10c0 1.104-.896 2-2 2s-2-.896-2-2 .896-2 2-2 2 .896 2 2" transform="translate(-292 -2896) translate(123 2806) translate(119 40) translate(50 50)"/>
                    </g>
                </g>
            </g>
        </g>
    </g>
</svg>
