<svg xmlns="http://www.w3.org/2000/svg" width="42" height="30" viewBox="0 0 42 30">
    <g fill="none" fill-rule="evenodd">
        <g>
            <g>
                <g>
                    <g>
                        <path d="M0 30L42 30 42 0 0 0z" transform="translate(-482 -2630) translate(443 2545) translate(0 40) translate(39 45)"/>
                        <path fill="#FFF" d="M17 29.829L3.586 16.414c-.781-.78-.781-2.047 0-2.828.78-.781 2.048-.781 2.828 0L17 24.172 37.586 3.586c.78-.781 2.048-.781 2.828 0 .781.78.781 2.048 0 2.828L17 29.829z" transform="translate(-482 -2630) translate(443 2545) translate(0 40) translate(39 45)"/>
                    </g>
                </g>
            </g>
        </g>
    </g>
</svg>
