<svg xmlns="http://www.w3.org/2000/svg" width="24" height="24" viewBox="0 0 24 24">
    <g fill="none" fill-rule="evenodd">
        <g>
            <g>
                <g>
                    <g>
                        <path d="M0 24L24 24 24 0 0 0z" transform="translate(-610 -2633) translate(443 2545) translate(119 40) translate(48 48)"/>
                        <path fill="#FFF" d="M14.828 12l8.586-8.586c.781-.781.781-2.047 0-2.828-.78-.781-2.048-.781-2.828 0L12 9.172 3.414.586c-.78-.781-2.048-.781-2.828 0-.78.781-.78 2.047 0 2.828L9.172 12 .586 20.586c-.78.781-.78 2.047 0 2.828.39.391.902.586 1.414.586.512 0 1.024-.195 1.414-.586L12 14.828l8.586 8.586c.39.391.902.586 1.414.586.512 0 1.024-.195 1.414-.586.781-.781.781-2.047 0-2.828L14.828 12z" transform="translate(-610 -2633) translate(443 2545) translate(119 40) translate(48 48)"/>
                    </g>
                </g>
            </g>
        </g>
    </g>
</svg>
