<svg xmlns="http://www.w3.org/2000/svg" width="8" height="8" viewBox="0 0 8 8">
    <g fill="none" fill-rule="evenodd">
        <g>
            <g>
                <g>
                    <g>
                        <path d="M0 8L8 8 8 0 0 0z" transform="translate(-815 -2119) translate(521 2023) translate(238 40) translate(56 56)"/>
                        <path fill="#646464" d="M4.707 4l2.646-2.646c.196-.196.196-.512 0-.708-.195-.195-.511-.195-.707 0L4 3.293 1.353.646C1.158.451.842.451.646.646c-.195.196-.195.512 0 .708L3.293 4 .646 6.646c-.195.196-.195.512 0 .708.098.097.226.146.354.146.128 0 .256-.049.353-.146L4 4.707l2.646 2.647c.098.097.226.146.354.146.128 0 .256-.049.353-.146.196-.196.196-.512 0-.708L4.707 4z" transform="translate(-815 -2119) translate(521 2023) translate(238 40) translate(56 56)"/>
                    </g>
                </g>
            </g>
        </g>
    </g>
</svg>
