<svg xmlns="http://www.w3.org/2000/svg" width="26" height="26" viewBox="0 0 26 26">
    <g fill="none" fill-rule="evenodd">
        <g>
            <g>
                <g>
                    <g>
                        <g>
                            <path d="M0 26L26 26 26 0 0 0z" transform="translate(-527 -313) translate(123 196) translate(0 40) translate(357 30) translate(47 47)"/>
                            <path fill="#1E1E1E" d="M14.06 13l7.72-7.72c.293-.293.293-.767 0-1.06-.293-.293-.768-.293-1.06 0L13 11.939 5.28 4.22c-.293-.293-.768-.293-1.06 0-.293.293-.293.767 0 1.06L11.94 13l-7.72 7.72c-.293.293-.293.767 0 1.06.147.147.338.22.53.22s.383-.073.53-.22L13 14.061l7.72 7.719c.146.147.338.22.53.22s.384-.073.53-.22c.293-.293.293-.767 0-1.06L14.06 13z" transform="translate(-527 -313) translate(123 196) translate(0 40) translate(357 30) translate(47 47)"/>
                        </g>
                    </g>
                </g>
            </g>
        </g>
    </g>
</svg>
