<svg xmlns="http://www.w3.org/2000/svg" width="22" height="22" viewBox="0 0 22 22">
    <g fill="none" fill-rule="evenodd">
        <g>
            <g>
                <g>
                    <g>
                        <g>
                            <path d="M0 22L22 22 22 0 0 0z" transform="translate(-410 -1068) translate(123 718) translate(0 271) translate(238 30) translate(49 49)"/>
                            <path fill="#1E1E1E" d="M2.5 3.5h2v5.379l-2-1.6V3.5zm17 0v3.779l-2 1.6V3.5h2zM21 8V2H1v6l9.25 7.4v3.1h-3.5c-.414 0-.75.336-.75.75s.336.75.75.75h8.5c.414 0 .75-.336.75-.75s-.336-.75-.75-.75h-3.5v-3.1L21 8z" transform="translate(-410 -1068) translate(123 718) translate(0 271) translate(238 30) translate(49 49)"/>
                        </g>
                    </g>
                </g>
            </g>
        </g>
    </g>
</svg>
