<svg xmlns="http://www.w3.org/2000/svg" width="16" height="16" viewBox="0 0 16 16">
    <g fill="none" fill-rule="evenodd">
        <g>
            <g>
                <g>
                    <path d="M0 16L16 16 16 0 0 0z" transform="translate(-175 -2637) translate(123 2545) translate(52 92)"/>
                    <path fill="#1E1E1E" d="M9.06 8l5.47-5.47c.293-.293.293-.767 0-1.06-.292-.293-.768-.293-1.06 0L8 6.939 2.53 1.47c-.292-.293-.767-.293-1.06 0-.293.293-.293.767 0 1.06L6.94 8l-5.47 5.47c-.293.293-.293.767 0 1.06.147.147.338.22.53.22s.384-.073.53-.22L8 9.061l5.47 5.469c.146.147.337.22.53.22s.383-.073.53-.22c.293-.293.293-.767 0-1.06L9.06 8z" transform="translate(-175 -2637) translate(123 2545) translate(52 92)"/>
                </g>
            </g>
        </g>
    </g>
</svg>
