<svg width="24" height="24" xmlns="http://www.w3.org/2000/svg">
    <g fill="none" fill-rule="evenodd">
        <path d="M0 24h24V0H0z"/>
        <path d="M18 19.5c-.827 0-1.5-.673-1.5-1.5s.673-1.5 1.5-1.5 1.5.673 1.5 1.5-.673 1.5-1.5 1.5m-12-6c-.827 0-1.5-.673-1.5-1.5s.673-1.5 1.5-1.5 1.5.673 1.5 1.5-.673 1.5-1.5 1.5m12-9c.827 0 1.5.673 1.5 1.5s-.673 1.5-1.5 1.5-1.5-.673-1.5-1.5.673-1.5 1.5-1.5M18 15c-.902 0-1.701.406-2.251 1.036l-6.817-3.408A3.02 3.02 0 0 0 9 12a3.02 3.02 0 0 0-.068-.628l6.817-3.408A2.979 2.979 0 0 0 18 9a3 3 0 1 0-2.932-2.372l-6.817 3.408A2.979 2.979 0 0 0 6 9a3 3 0 1 0 0 6c.902 0 1.701-.406 2.251-1.036l6.817 3.408A3 3 0 1 0 18 15" fill="#FFF"/>
    </g>
</svg>
