<svg xmlns="http://www.w3.org/2000/svg" width="19" height="19" viewBox="0 0 19 19">
    <g fill="none" fill-rule="evenodd">
        <g>
            <g>
                <g>
                    <g>
                        <g>
                            <path d="M0 19L19 19 19 0 0 0z" transform="translate(-49 -1774) translate(20 1668) translate(0 46) translate(0 36) translate(29 24)"/>
                            <path fill="#0489FF" d="M9.5 1C4.806 1 1 4.806 1 9.5S4.806 18 9.5 18 18 14.194 18 9.5 14.194 1 9.5 1m0 1.5c3.86 0 7 3.14 7 7s-3.14 7-7 7-7-3.14-7-7 3.14-7 7-7" transform="translate(-49 -1774) translate(20 1668) translate(0 46) translate(0 36) translate(29 24)"/>
                        </g>
                    </g>
                </g>
            </g>
        </g>
    </g>
</svg>
