<svg xmlns="http://www.w3.org/2000/svg" width="19" height="19" viewBox="0 0 19 19">
    <g fill="none" fill-rule="evenodd">
        <g>
            <g>
                <g>
                    <g>
                        <g>
                            <path d="M0 19L19 19 19 0 0 0z" transform="translate(-211 -1774) translate(20 1668) translate(0 46) translate(162 36) translate(29 24)"/>
                            <path fill="#FF2600" d="M10.56 9.5l6.97-6.97c.293-.293.293-.767 0-1.06-.293-.293-.768-.293-1.06 0L9.5 8.439 2.53 1.47c-.292-.293-.767-.293-1.06 0-.293.293-.293.767 0 1.06L8.44 9.5l-6.97 6.97c-.293.293-.293.767 0 1.06.147.147.339.22.53.22.192 0 .384-.073.53-.22l6.97-6.969 6.97 6.969c.146.147.338.22.53.22s.384-.073.53-.22c.293-.293.293-.767 0-1.06L10.56 9.5z" transform="translate(-211 -1774) translate(20 1668) translate(0 46) translate(162 36) translate(29 24)"/>
                        </g>
                    </g>
                </g>
            </g>
        </g>
    </g>
</svg>
