<svg xmlns="http://www.w3.org/2000/svg" width="36" height="36" viewBox="0 0 36 36">
    <g fill="none" fill-rule="evenodd">
        <g>
            <g>
                <g>
                    <g>
                        <path d="M0 36L36 36 36 0 0 0z" transform="translate(-50 -1142) translate(20 984) translate(0 142) translate(30 16)"/>
                        <path fill="#FFF" d="M30 17c-2 0-2 2-4 2s-2-2-4-2-2 2-4 2-2-2-4-2-2 2-4 2-2-2-4-2v10h24V17z" transform="translate(-50 -1142) translate(20 984) translate(0 142) translate(30 16)"/>
                        <path fill="#C8C8C8" d="M30 17c-2 0-2 2-4 2s-2-2-4-2-2 2-4 2-2-2-4-2-2 2-4 2-2-2-4-2v10h24V17zm-8 1.5c.348 0 .471.092.939.561.574.573 1.44 1.439 3.061 1.439 1.167 0 1.943-.449 2.5-.914V25.5h-21v-5.914c.557.465 1.333.914 2.5.914 1.621 0 2.487-.866 3.061-1.439.468-.469.591-.561.939-.561s.471.092.939.561c.574.573 1.44 1.439 3.061 1.439s2.487-.866 3.061-1.439c.468-.469.591-.561.939-.561zM16 11.25H8.811l1.719-1.72c.293-.293.293-.767 0-1.06-.293-.293-.767-.293-1.06 0L5.939 12l3.531 3.53c.146.147.338.22.53.22s.384-.073.53-.22c.293-.293.293-.767 0-1.06l-1.719-1.72H16c.414 0 .75-.336.75-.75s-.336-.75-.75-.75M26.53 8.47c-.293-.293-.768-.293-1.06 0-.294.293-.294.768 0 1.06l1.72 1.72H20c-.414 0-.75.336-.75.75s.336.75.75.75h7.19l-1.72 1.72c-.294.293-.294.768 0 1.06.146.147.337.22.53.22.192 0 .384-.073.53-.22L30.06 12l-3.53-3.53z" transform="translate(-50 -1142) translate(20 984) translate(0 142) translate(30 16)"/>
                    </g>
                </g>
            </g>
        </g>
    </g>
</svg>
