<svg xmlns="http://www.w3.org/2000/svg" width="16" height="16" viewBox="0 0 16 16">
    <g fill="none" fill-rule="evenodd">
        <g>
            <g>
                <g>
                    <path d="M0 16L16 16 16 0 0 0z" transform="translate(-281.000000, -279.000000) translate(281.000000, 277.000000) translate(0.000000, 2.000000)"/>
                    <path fill="#1E1E1E" d="M7.854 5.396L4.5 2.043 1.147 5.396c-.196.196-.196.513 0 .708.194.194.512.194.706 0L4 3.957v9.544c0 .276.224.5.5.5.278 0 .5-.224.5-.5V3.958l2.147 2.146c.099.098.226.146.354.146.128 0 .255-.048.354-.146.195-.196.195-.513 0-.708M14.854 9.896c-.195-.195-.512-.195-.707 0l-2.148 2.146V2.502c0-.277-.223-.5-.5-.5-.276 0-.5.223-.5.5v9.541L8.854 9.896c-.194-.195-.511-.195-.707 0-.195.195-.195.512 0 .707l3.353 3.354 3.354-3.354c.196-.194.196-.511 0-.707" transform="translate(-281.000000, -279.000000) translate(281.000000, 277.000000) translate(0.000000, 2.000000)"/>
                </g>
            </g>
        </g>
    </g>
</svg>
