<svg xmlns="http://www.w3.org/2000/svg" width="36" height="36" viewBox="0 0 36 36">
    <g fill="none" fill-rule="evenodd">
        <g>
            <g>
                <g>
                    <g>
                        <path d="M0 36L36 36 36 0 0 0z" transform="translate(-274 -1142) translate(20 984) translate(224 142) translate(30 16)"/>
                        <path fill="#FFF" d="M27 20c0 4.971-4.029 9-9 9s-9-4.029-9-9V9c4 0 9-3 9-3s5 3 9 3v11z" transform="translate(-274 -1142) translate(20 984) translate(224 142) translate(30 16)"/>
                        <path fill="#C8C8C8" d="M14.95 21.002c-.757 0-1.372-.199-1.84-.6-.48-.4-.72-.97-.72-1.711v-3.513h1.6v3.529c0 .299.084.527.252.688.168.16.404.24.707.24.305 0 .541-.08.71-.24.167-.161.251-.389.251-.688v-3.529h1.6v3.513c0 .752-.233 1.325-.696 1.719-.47.395-1.092.592-1.865.592M22.174 17.283l.648-2.105h1.647l-1.943 5.697h-1.92l-2.016-5.697h1.71l.657 2.105c.209.66.414 1.391.617 2.191.18-.773.38-1.504.6-2.19" transform="translate(-274 -1142) translate(20 984) translate(224 142) translate(30 16)"/>
                        <path fill="#C8C8C8" d="M26.25 20c0 4.549-3.701 8.25-8.25 8.25-4.549 0-8.25-3.701-8.25-8.25V9.72c3.366-.265 7.06-2.189 8.25-2.855 1.19.666 4.884 2.59 8.25 2.855V20zm7.75-.75c-.414 0-.75.336-.75.75v2.189L29.061 18l5.469-5.47c.293-.293.293-.767 0-1.06-.293-.293-.767-.293-1.06 0l-5.72 5.719V8.25H27c-3.741 0-8.566-2.864-8.614-2.894L18 5.126l-.386.23C17.566 5.386 12.741 8.25 9 8.25h-.75v8.939L2.53 11.47c-.293-.293-.767-.293-1.06 0-.293.293-.293.767 0 1.06L6.939 18 2.75 22.189V20c0-.414-.336-.75-.75-.75s-.75.336-.75.75v4.75H6c.414 0 .75-.336.75-.75s-.336-.75-.75-.75H3.811l4.439-4.439V20c0 5.376 4.374 9.75 9.75 9.75s9.75-4.374 9.75-9.75v-1.189l4.439 4.439H30c-.414 0-.75.336-.75.75s.336.75.75.75h4.75V20c0-.414-.336-.75-.75-.75z" transform="translate(-274 -1142) translate(20 984) translate(224 142) translate(30 16)"/>
                    </g>
                </g>
            </g>
        </g>
    </g>
</svg>
